<svg xmlns="http://www.w3.org/2000/svg" viewBox="0 0 64 64">
  <defs>
    <linearGradient id="heartGrad" x1="0%" y1="0%" x2="100%" y2="100%">
      <stop offset="0%" style="stop-color:#ff6b9d;stop-opacity:1" />
      <stop offset="100%" style="stop-color:#c44569;stop-opacity:1" />
    </linearGradient>
    <linearGradient id="ringGrad" x1="0%" y1="0%" x2="100%" y2="100%">
      <stop offset="0%" style="stop-color:#ffd700;stop-opacity:1" />
      <stop offset="100%" style="stop-color:#ff8c00;stop-opacity:1" />
    </linearGradient>
  </defs>
  <!-- Background circle -->
  <circle cx="32" cy="32" r="30" fill="#fff5f8" stroke="#ff6b9d" stroke-width="2"/>
  <!-- Heart -->
  <path d="M32 52 C32 52 12 38 12 24 C12 16 18 12 24 12 C28 12 32 16 32 20 C32 16 36 12 40 12 C46 12 52 16 52 24 C52 38 32 52 32 52Z" fill="url(#heartGrad)"/>
  <!-- Wedding rings interlinked -->
  <circle cx="26" cy="28" r="6" fill="none" stroke="url(#ringGrad)" stroke-width="2.5"/>
  <circle cx="38" cy="28" r="6" fill="none" stroke="url(#ringGrad)" stroke-width="2.5"/>
  <!-- Sparkles -->
  <circle cx="18" cy="18" r="2" fill="#ffd700"/>
  <circle cx="46" cy="18" r="2" fill="#ffd700"/>
  <circle cx="32" cy="10" r="1.5" fill="#ff6b9d"/>
</svg>
